# xmcd
#
# Track frame offsets:
#	150
#	9512
#	19971
#	32286
#	46141
#	57672
#	67472
#	80731
#	93854
#	104494
#	118101
#	131353
#	143139
#	156304
#	170395
#	182780
#	193608
#	206411
#	216957
#	226952
#	240619
#	250614
#	261327
#	271256
#	284877
#	298806
#	311626
#
# Disc length: 4314 seconds
#
# Revision: 0
# Processed by: cddbd v1.5.1PL0 Copyright (c) Steve Scherf et al.
# Submitted via: dBpowerAMP V4.0
#
DISCID=9b10d81b
DTITLE=Merle Haggard - Untamed Hawk Disc 2
DYEAR=1995
DGENRE=Country
TTITLE0=I'll Take A Chance (with Bonnie Owens)
TTITLE1=Our Hearts Are Holding Hands (with Bonnie Owens)
TTITLE2=Too Used To Being With You (with Bonnie Owens)
TTITLE3=That Makes Two Of Us (with Bonnie Owens)
TTITLE4=Forever And Ever (with Bonnie Owens)
TTITLE5=Wait A Little Longer, Please Jesus (with Bonnie Owens)
TTITLE6=Swingin' Doors
TTITLE7=Swingin' Doors (Alternate Take)
TTITLE8=The Girl Turned Ripe
TTITLE9=I Threw Away The Rose
TTITLE10=The Fugitive
TTITLE11=Loneliness Is Eating Me Alive
TTITLE12=Someone Told My Story
TTITLE13=I Threw Away The Rose
TTITLE14=Hang Up My Gloves
TTITLE15=The Longer You Wait
TTITLE16=The Bottle Let Me Down
TTITLE17=I Can't Stand Me
TTITLE18=Someone Else You've Known
TTITLE19=High On A Hilltop
TTITLE20=I'll Look Over You
TTITLE21=No More You And Me
TTITLE22=Mixed Up Mess Of A Heart
TTITLE23=The Fugitive
TTITLE24=Life In Prison
TTITLE25=House Of Memories
TTITLE26=All Of Me Belongs To You
EXTD=Submitted faithfully by +Sound Man+\nPlease visit my Merle Haggard Discography site at:\nhttp://www.angelfire.com/stars4/anxietyfriend/merlehaggard.htm
EXTT0=
EXTT1=
EXTT2=
EXTT3=
EXTT4=
EXTT5=
EXTT6=
EXTT7=
EXTT8=
EXTT9=
EXTT10=
EXTT11=
EXTT12=
EXTT13=
EXTT14=
EXTT15=
EXTT16=
EXTT17=
EXTT18=
EXTT19=
EXTT20=
EXTT21=
EXTT22=
EXTT23=
EXTT24=
EXTT25=
EXTT26=
PLAYORDER=
